<svg xmlns="http://www.w3.org/2000/svg" xmlns:xlink="http://www.w3.org/1999/xlink" fill="none" version="1.1" width="35" height="35" viewBox="0 0 35 35"><defs><clipPath id="master_svg0_5161_5033"><rect x="0" y="0" width="35" height="35" rx="0"/></clipPath><linearGradient x1="0.5" y1="0" x2="0.5" y2="1" id="master_svg1_5161_7095"><stop offset="0%" stop-color="#FC6100" stop-opacity="1"/><stop offset="100%" stop-color="#FD7C1F" stop-opacity="1"/></linearGradient></defs><g clip-path="url(#master_svg0_5161_5033)"><g><path d="M31.506584741210936,19.48570390625C31.51468474121094,19.15610390625,31.515484741210937,18.82650390625,31.50878474121094,18.49690390625C31.59708474121094,14.00530390625,30.266884741210937,10.21917390625,27.661584741210937,7.54663390625C26.418884741210938,6.27229390625,24.907584741210936,5.29422390625,23.175684741210937,4.62782390625C22.906884741210938,2.20171390625,20.284784741210938,0.29150390625,17.09978474121094,0.29150390625C13.914884741210937,0.29150390625,11.293054741210938,2.20171390625,11.024154741210937,4.62782390625C9.292374741210939,5.29422390625,7.781264741210937,6.27229390625,6.538664741210938,7.54669390625C3.9326847412109376,10.21927390625,2.6019787412109374,13.99790390625,2.6905667412109375,18.47590390625C2.6828387412109373,18.89900390625,2.6854597412109373,19.29620390625,2.6985677412109377,19.68470390625C2.0232907412109373,20.36770390625,1.4942767412109375,21.39910390625,1.8807717412109375,22.84690390625C2.1681237412109375,23.92250390625,2.960014741210937,24.72860390625,3.9317347412109376,25.08120390625C4.425504741210938,25.38710390625,5.005554741210938,25.56530390625,5.626154741210938,25.56940390625C6.865104741210938,31.01280390625,11.362544741210938,34.70820390625,17.23568474121094,34.70820390625C23.097984741210936,34.70820390625,27.596484741210936,31.00360390625,28.82858474121094,25.55710390625C28.866384741210936,25.56530390625,28.905684741210937,25.56980390625,28.94618474121094,25.56980390625C29.719984741210936,25.56980390625,30.431584741210937,25.29830390625,30.992784741210937,24.84630390625C31.72678474121094,24.42790390625,32.30048474121094,23.72780390625,32.53578474121093,22.84690390625C32.96198474121094,21.25110390625,32.275584741210935,20.16070390625,31.506584741210936,19.48570390625L31.506584741210936,19.48570390625ZM11.975284741210938,12.99180390625C12.068484741210938,13.14880390625,14.306684741210937,16.85740390625,18.52388474121094,18.46490390625C19.687184741210938,18.90840390625,20.87918474121094,19.16220390625,22.031884741210938,19.40740390625C24.344384741210938,19.89970390625,26.528784741210938,20.36470390625,28.016984741210937,22.30590390625C28.032484741210936,22.32630390625,28.04968474121094,22.34480390625,28.067384741210937,22.36260390625L28.06518474121094,22.46070390625C28.06518474121094,23.18420390625,28.010784741210937,23.88390390625,27.905984741210936,24.55610390625C25.992684741210937,27.62810390625,22.818384741210938,29.64080390625,18.885784741210937,30.07440390625C18.592784741210938,29.68580390625,17.995784741210937,29.41760390625,17.302184741210937,29.41760390625C16.318684741210937,29.41760390625,15.520584741210937,29.95270390625,15.520584741210937,30.61100390625C15.520584741210937,31.27090390625,16.318684741210937,31.80460390625,17.30228474121094,31.80460390625C18.18368474121094,31.80460390625,18.909884741210938,31.37350390625,19.05118474121094,30.80970390625C20.31958474121094,30.66320390625,21.528984741210937,30.35850390625,22.66268474121094,29.89880390625C24.282184741210937,29.24140390625,25.709084741210937,28.28410390625,26.903884741210938,27.05310390625C27.09528474121094,26.85620390625,27.278784741210938,26.65240390625,27.456384741210936,26.44320390625C26.032484741210936,30.80100390625,22.226084741210936,33.60260390625,17.256784741210936,33.60290390625C17.24788474121094,33.60260390625,17.223384741210936,33.60260390625,17.21458474121094,33.60260390625C10.838254741210937,33.60260390625,6.384804741210938,29.02080390625,6.384804741210938,22.45020390625L6.372894741210938,21.82510390625C6.364994741210937,21.55710390625,6.406424741210937,20.80440390625,6.450754741210938,20.08280390625C9.926764741210938,18.84690390625,11.370094741210938,15.29650390625,11.433254741210938,15.13690390625L11.975284741210938,12.99180390625ZM14.267784741210937,22.94840390625C14.267784741210937,24.09210390625,13.344884741210938,25.01980390625,12.206284741210938,25.01980390625C11.067834741210937,25.01980390625,10.144904741210938,24.09210390625,10.144904741210938,22.94840390625C10.144904741210938,21.80420390625,11.067834741210937,20.87670390625,12.206284741210938,20.87670390625C13.344784741210937,20.87670390625,14.267784741210937,21.80420390625,14.267784741210937,22.94840390625ZM23.867384741210937,22.94840390625C23.867384741210937,24.07390390625,22.959284741210936,24.98650390625,21.838984741210936,24.98650390625C20.718684741210936,24.98650390625,19.81038474121094,24.07390390625,19.81038474121094,22.94840390625C19.81038474121094,21.82240390625,20.718684741210936,20.90980390625,21.838984741210936,20.90980390625C22.959284741210936,20.90980390625,23.867384741210937,21.82240390625,23.867384741210937,22.94840390625Z" fill="url(#master_svg1_5161_7095)" fill-opacity="1"/></g></g></svg>
